<?xml version="1.0"?>
<!DOCTYPE svg PUBLIC "-//W3C//DTD SVG 1.1//EN" "http://www.w3.org/Graphics/SVG/1.1/DTD/svg11.dtd">
<svg xmlns="http://www.w3.org/2000/svg" xmlns:xl="http://www.w3.org/1999/xlink" version="1.1" viewBox="0 0 1024 1024" width="1024pt" height="1024pt"><metadata xmlns:dc="http://purl.org/dc/elements/1.1/"><dc:date>2016-09-25 17:35Z</dc:date><!-- Produced by OmniGraffle Professional 4.2.3 --></metadata><defs><filter id="Shadow" filterUnits="userSpaceOnUse"><feGaussianBlur in="SourceAlpha" result="blur" stdDeviation="5.6855536"/><feOffset in="blur" result="offset" dx="0" dy="5"/><feFlood flood-color="black" flood-opacity=".75" result="flood"/><feComposite in="flood" in2="offset" operator="in"/></filter><linearGradient x1="0" x2="1" id="Gradient" gradientUnits="userSpaceOnUse"><stop offset="0" stop-color="white"/><stop offset="1" stop-color="#e4e4e4"/></linearGradient><linearGradient id="Obj_Gradient" xl:href="#Gradient" gradientTransform="translate(512 30.405487) rotate(90) scale(963.18904)"/><linearGradient x1="0" x2="1" id="Gradient_2" gradientUnits="userSpaceOnUse"><stop offset="0" stop-color="#eda0f5"/><stop offset="1" stop-color="#94629e"/></linearGradient><linearGradient id="Obj_Gradient_2" xl:href="#Gradient_2" gradientTransform="translate(503.9656 51.70999) rotate(89) scale(920.72023)"/><filter id="Shadow_2" filterUnits="userSpaceOnUse"><feGaussianBlur in="SourceAlpha" result="blur" stdDeviation=".26245749"/><feOffset in="blur" result="offset" dx="-2" dy="-5"/><feFlood flood-color="#ffd3fc" flood-opacity=".67" result="flood"/><feComposite in="flood" in2="offset" operator="in" result="color"/><feMerge><feMergeNode in="color"/><feMergeNode in="SourceGraphic"/></feMerge></filter></defs><g stroke="none" stroke-opacity="1" stroke-dasharray="none" fill="none" fill-opacity="1"><title>Canvas 1</title><g><title>Layer 1</title><g><use xl:href="#id2_Graphic" filter="url(#Shadow)"/></g><g id="id2_Graphic"><path d="M 852.53833 171.46167 C 1040.6135 359.53586 1040.6135 664.4641 852.53833 852.53833 C 664.4641 1040.6135 359.53586 1040.6135 171.46167 852.53833 C -16.613525 664.4641 -16.613525 359.53586 171.46167 171.46167 C 359.53586 -16.613525 664.4641 -16.613525 852.53833 171.46167" fill="url(#Obj_Gradient)"/></g><g><path d="M 831.00696 191.9953 C 1007.1907 368.72906 1007.1907 655.27094 831.00696 832.0047 C 654.8242 1008.7394 369.17578 1008.7394 192.99301 832.0047 C 16.809326 655.27094 16.809326 368.72906 192.99301 191.9953 C 369.17578 15.26059 654.8242 15.26059 831.00696 191.9953" fill="url(#Obj_Gradient_2)"/></g><g filter="url(#Shadow_2)"><path d="M 241.8931 319.0517 L 332.28217 319.0517 L 460.8335 510.87372 L 334.33926 702 L 244.87335 702 L 364.54715 515.2932 Z" fill="#8a538e"/></g><g filter="url(#Shadow_2)"><path d="M 720.1029 704.9483 L 626.82086 704.9483 L 544.167 581.3484 L 462.0936 702.3592 L 370.64072 702.3592 L 496.60275 508.6996 L 368.38773 320.7724 L 465.92548 320.7724 Z" fill="#7b007e"/></g><g filter="url(#Shadow_2)"><path d="M 575.95508 430.6608 L 780.9883 430.6608 L 780.9883 496.4346 L 614.80615 496.4346 Z" fill="#8a538e"/></g><g filter="url(#Shadow_2)"><path d="M 642.42487 528.50433 L 782.10687 528.50433 L 782.10687 588.8575 L 675.4955 588.8575 Z" fill="#8a538e"/></g></g></g></svg>
